<svg id="Layer_1" data-name="Layer 1" xmlns="http://www.w3.org/2000/svg" viewBox="0 0 1920 1080"><defs><style>.cls-1{fill:#c1272d;}</style></defs><path d="M236.48,432.29a55.48,55.48,0,0,0-7.17,6,2.87,2.87,0,0,1-1.89.75c-1.51,0-2.64-.75-3.77-2.64a9.63,9.63,0,0,1-1.89-6q0-5.65-5.66-6.79c-2.64-.76-4.53-3.4-5.66-7.55-.38-3.4-1.89-6-4.15-7.17v-.38a5.52,5.52,0,0,1,.75-2.64q6.22-6.22,7.93-11.32l1.13-2.65c-1.89.38-3.4,1.51-5.28,3.78-1.89,2.64-3,3.77-4.15,3.77s-2.27-.75-4.16-1.88a5.74,5.74,0,0,1-2.64-5.29,14.89,14.89,0,0,1,1.89-5.28,18.27,18.27,0,0,0,2.26-4.91l-4.53,2.64c-6,3-9.81,4.53-11.7,4.53-3.77,0-5.66-1.88-5.66-5.66,0-2.64,1.89-4.91,5.66-7.17l1.89-.76c-5.66-3.39-8.68-6.41-9.43-8.3a14.72,14.72,0,0,1-1.14-5.28c0-2.27.76-4.91,2.27-8.31a55.2,55.2,0,0,1,19.25-23.4l53.21-39.25c8.68-5.66,12.84-13.59,12.84-24.53a172.55,172.55,0,0,1,3-31.33,46.81,46.81,0,0,0,1.51-7.92,31.13,31.13,0,0,1,1.51-6.42A9.14,9.14,0,0,1,275,216a3.84,3.84,0,0,1,3-1.88l1.51.37c1.89.76,3,1.89,3,3.4a10.51,10.51,0,0,1-1.13,4.91,57.2,57.2,0,0,0-1.14,11.32,34.38,34.38,0,0,0,.38,6.42A38.5,38.5,0,0,1,281,247l.38-4.53c0-6,.37-10.19,1.51-12.07.75-4.53,1.88-7.18,3.39-7.55a15.42,15.42,0,0,1,6.8,1.88h1.51c.37,0,.75-.37,1.51-1.13,3-3,4.9-4.53,6-4.53a5.22,5.22,0,0,1,3.4,1.89c4.15,3.4,6,6.79,6,10.19l-.38,6.42a10,10,0,0,0,1.14,4.53,10.34,10.34,0,0,0,3-7.17l.38-1.51c0-4.16,1.51-6.8,4.15-7.18,3.4,0,4.91,2.65,4.91,7.93a4.32,4.32,0,0,0,2.26-4.15c0-1.89,1.14-3.4,3.78-4.53,1.89,0,3,.38,3.4,1.13,1.13,3,2.64,4.53,4.15,4.53q3.39,0,10.19-4.53c21.89-11.32,44.16-21.89,66.42-32.08,47.18-20.76,86.44-30.95,118.52-30.95,38.49,0,69.82,11.7,93.6,35.1.38.38,1.13.76,1.51,1.13a3.75,3.75,0,0,0,1.51,1.89A92.23,92.23,0,0,1,658.82,236q14.73,33.41,14.72,63.41a128.37,128.37,0,0,1-5.66,37.36,431.73,431.73,0,0,1-40.38,91.71l-.76,1.51a754.42,754.42,0,0,1-54.35,83.79L564.47,524a428.13,428.13,0,0,1-55.11,61.9,120.12,120.12,0,0,0-16.61,20,135.29,135.29,0,0,1-10.56,14c1.13,2.64,3.39,3.77,7.17,3.77,23.78,2.65,56.61,7.93,98.13,16.23l13.21,1.89a297.32,297.32,0,0,1,70.58,18.87l.75.38c7.17,3.4,11,7.55,11,12.45q0,5.1-7.93,11.33.57,1.69,3.4,3.39a4.75,4.75,0,0,1,2.64,3.78l-.38,1.89a4.94,4.94,0,0,1-4.53,2.64,5.44,5.44,0,0,1-2.64-.76,11.82,11.82,0,0,0-3.77-.37,5.34,5.34,0,0,0-2.27.75,18,18,0,0,0,3.78,3.77c2.64,1.14,3.77,2.65,3.77,4.16,0,3-1.13,4.53-3.77,4.53L660,704.79a11.07,11.07,0,0,0-3.77-.75l-1.89.37a21.31,21.31,0,0,0,6.8,4.53,26.64,26.64,0,0,1,6.41,4.15c1.89,1.51,2.65,3.78,3,6.8a13,13,0,0,1-6.79,1.89,20.94,20.94,0,0,1-6-2.65c-3-1.88-5.28-2.64-7.17-2.64a7.64,7.64,0,0,0-4.15,1.13q1.7,4,7.92,5.66c4.15,1.14,6,3,6.42,5.67v2.26c-.38.38-.38.76-.76.76-.37.37-1.13.37-1.51.75h-3.39a2.82,2.82,0,0,0-1.89-.38l-1.51.38c-1.89,0-2.64,1.51-2.64,4.53,0,1.13,1.51,2.64,4.15,4.53a7.31,7.31,0,0,1,3.4,1.89c4.15,2.64,6,4.9,6,7.17,0,3-1.51,4.53-4.16,4.53l-7.54-4.16a125.33,125.33,0,0,0-26.8-7.92,29.24,29.24,0,0,0,11.7,8.3,35.34,35.34,0,0,1,8.3,4.91c6.42,4.15,9.82,8.68,10.95,13.59a59.77,59.77,0,0,1-21.52-4.91,90.61,90.61,0,0,0-17.36-4.91c1.14,3.4,3.78,5.66,7.93,7.55h.38c10.56,5.28,21.13,10.95,31.32,16.61l1.14.37c4.15,2.65,6.41,4.91,6.41,7.18l-.38,1.88A6.33,6.33,0,0,1,659.2,795a16.06,16.06,0,0,1-3.77-1.51,14.07,14.07,0,0,0-4.53-.76v1.89c0,.38.37.38.75.75s.38.38.38.76c3.4,3.77,4.91,7.17,4.91,10.19a5.68,5.68,0,0,1-1.51,4.15,6.34,6.34,0,0,1-5.29,2.26,17.65,17.65,0,0,1-5.66-2.26l-2.26-.76a567.86,567.86,0,0,0-135.5-41.13A610.47,610.47,0,0,0,398.78,758c-10.19,0-18.88-.38-26.42-1.13-5.67,0-8.68,2.64-8.68,7.54s0,9.44-.38,12.84v12.07l.38,10.95a328.56,328.56,0,0,1-1.89,33.59c-1.51,17.74-2.64,53.59-3,107.94,0,4.16-1.13,7.18-3.4,8.69l-1.51.37c-1.13,0-2.26-.75-3.77-2.26-.38-.38-1.13-.76-1.51-1.51s-1.13-1.51-1.51-2.27a5.48,5.48,0,0,0-2.27-.75l-1.88.38c-4.91,0-7.93-2.27-9.06-7.17q-.57-5.67-4.53-5.67l-2.64.38c-2.27,0-4.15-1.89-5.29-6-.37-1.88-1.13-2.64-1.51-2.64-5.66,0-9.43-3.4-10.56-9.81l-1.51-4.91a44.93,44.93,0,0,1-4.53-20.38A61.11,61.11,0,0,0,300.65,869a84.55,84.55,0,0,1-2.27-13.59c1.89,32.08,3.4,48.69,3.77,50.2a21.55,21.55,0,0,1,.38,4.53c0,3.4-1.88,5.28-5.28,5.28-2.64,0-4.53-1.51-4.91-4.52-.75-5.29-1.51-10.57-1.89-16.23l-.75-7.55c0-2.27-1.13-4.15-3.77-5.66a13.35,13.35,0,0,1,1.13,5.28c0,1.89-1.89,6.42-5.29,13.59q-1.12,3.39-3.39,3.39c-3.4,0-6.42-5.28-8.31-15.85l-1.13-.38c-.75,0-1.89.76-3,1.89s-2.26,1.89-3,1.89c-.38,0-1.13-.38-2.26-1.51-1.13-.76-1.51-2.27-1.51-4.53l-.38-21.14a63.51,63.51,0,0,0,.38-8.68,150.69,150.69,0,0,0-1.51-22.26,7,7,0,0,0-2.64,6L256.11,869q0,10.18-6.8,10.19c-2.64-.38-4.15-2.64-4.15-6Q244,859.53,244,836.89c.38-31.33,1.13-54.35,1.51-69.07v-2.64c0-3-1.89-4.91-5.28-6-2.27-.38-4.53-2.64-6.42-6.79a32,32,0,0,0-3.77-6c-.38-.38-.38-1.13-.38-2.27a3.46,3.46,0,0,1,1.51-2.26c4.15-2.27,7.55-6.8,10.57-13.21a39.75,39.75,0,0,1,4.15-7.93l-1.89-.37a4.78,4.78,0,0,0-4.15,2.64l-4.53,3.39a5.78,5.78,0,0,1-5.66-5.66c0-1.88,1.51-3.77,4.53-6.41l1.51-1.14a23.37,23.37,0,0,0-4.53-3.39c-2.27-.76-3.4-1.89-3.4-3.78a5.57,5.57,0,0,1,.38-2.64,2.82,2.82,0,0,0,.38-1.51V701a1.4,1.4,0,0,1-1.14-.38Q215,690.46,215,680.26l-.76-1.51c-.75-4.15-2.26-6.42-4.15-6.79-4.53-.38-6.79-1.89-6.79-3.78,0-1.13,1.51-3.77,4.91-8.68,1.51-1.51,2.26-2.64,2.26-3.77a1.4,1.4,0,0,0-.38-1.14,15.19,15.19,0,0,1-1.13-5.66c0-3.77,3-7.17,9.06-9.81a83.08,83.08,0,0,0,13.21-9.44,69.39,69.39,0,0,1,16.23-11.32c3.39-1.13,4.9-4.91,5.28-10.57,0-5.66,1.13-27.55,3-65.67.38-18.49.76-38.12.76-59.26a39.65,39.65,0,0,0,.37-7.17,11.7,11.7,0,0,0-3.39-6.79c-.38-.38-.38-.38-.38-.76a6,6,0,0,0-.38-1.51c2.27-3,3.4-5.66,3.4-7.54v-.38c0-3-2.64-5.66-7.93-7.55-3-1.13-6-3.77-8.68-7.17a28,28,0,0,1-1.89-2.27v-2.64a25.39,25.39,0,0,1,6.8-10.57c3.4-3,4.9-6,4.9-8.68l-.37-2.26Q247.25,425.49,236.48,432.29Zm-18.11-85.68a11.08,11.08,0,0,0,3-1.51c1.13-.75,1.51-2.26,1.51-4.15a12.21,12.21,0,0,0-7.55,6.8A25.06,25.06,0,0,1,218.37,346.61Zm40.38,38.5a248.61,248.61,0,0,0-34,35.1Q256.49,399.27,258.75,385.11ZM236.1,677.24c-4.15.38-6.41,2.64-7.54,6.79C232,683.66,234.6,681.39,236.1,677.24ZM232,335.29a11.09,11.09,0,0,0,3-1.51c.76-.38,1.13-1.51,1.13-3v-1.13a10.56,10.56,0,0,0-7.17,7.17A22.87,22.87,0,0,1,232,335.29ZM253.47,418c1.13-.38,1.51-1.14,1.88-3a7.79,7.79,0,0,0-1.88,1.13c-.76.75-1.51,1.13-1.89,1.51h-2.64Zm32.46,176.26a8.5,8.5,0,0,0,1.13-3,4.07,4.07,0,0,0-.38-1.89,6,6,0,0,0-2.26-1.13c-1.14,0-1.89,1.13-1.89,3.77,0,1.89.38,2.64,1.13,3H284A2.94,2.94,0,0,0,285.93,594.21Zm32.83-162.3h-1.51v15.85H318Zm61.9,85.68c3.77-3.4,7.17-6,10.57-8.68a662.13,662.13,0,0,0,72.46-65.68l20-19.62c10.19-10.19,19.62-20.38,29.06-31.33,9.43-10.57,19.25-20.76,29.44-30.95A129.45,129.45,0,0,0,568.62,324a386.09,386.09,0,0,0,17-42.65l3.4-9.81a118.38,118.38,0,0,0-40.76,6.79c-27.56,10.19-55.11,24.53-83.41,43l-20.39,12.45c-8.3,5.28-16.6,11-24.53,16.61-8.3,5.66-16.61,11.32-25.29,16.23s-13.21,12.83-13.21,23.77c-.37,10.95-.37,21.52-.75,32.46q-.57,32.83-3.4,65.68l-1.88,22.26-.76,12.08Zm33.21-246.46h.76c10.57,0,21.13-4.53,32.08-14A94.85,94.85,0,0,0,413.87,271.13Zm10.19,415.92a7.31,7.31,0,0,0-3.77-1.13,7.83,7.83,0,0,0-5.66,2.64l2.64.38A11.21,11.21,0,0,0,424.06,687.05Zm35.48-154.74a112.78,112.78,0,0,0-24.15,26C449.73,548.16,457.65,539.48,459.54,532.31ZM458,722.53l-14,.38a498.61,498.61,0,0,0,74.73,6.41A272.68,272.68,0,0,0,458,722.53Zm-8.68-466.12a10.51,10.51,0,0,0,4.91-1.13,32.13,32.13,0,0,0,4.53-3c1.51-1.14,3-1.89,4.15-2.65a37.41,37.41,0,0,0-14.72,6.8Zm10.57,222.3a165.54,165.54,0,0,0,30.95-34,139.74,139.74,0,0,0-38.5,41.52Zm26,71.34a188.54,188.54,0,0,0,18.12-23.4q7.35-11.32,7.92-17l-47.55,60.77A178.43,178.43,0,0,0,486,550.05Zm-5.28-38.12-16.23,16.6A34.61,34.61,0,0,0,480.68,511.93Zm48.69-107.19,1.13-1.89a114.14,114.14,0,0,0-23.4,25.29l-6.8,8.68A98.55,98.55,0,0,0,529.37,404.74Zm17,272.5a29.08,29.08,0,0,1-7.17-1.89c-2.64-.75-4.91-1.51-6.8-1.89a27.53,27.53,0,0,0-4.9-.37,19.6,19.6,0,0,0-7.93,1.51c7.55,1.88,14.34,3,20.38,3A34.33,34.33,0,0,0,546.35,677.24Zm-1.51-209.85a22.93,22.93,0,0,0-7.55,10.94C541.82,474.94,544.46,471.54,544.84,467.39Zm9.06,267.22a71.12,71.12,0,0,0-7.55.75q17.55,6.79,31.7,7.93C565.22,737.63,557.29,734.61,553.9,734.61ZM551.63,461a7.05,7.05,0,0,0,3-5.28l-.37-1.89a27.05,27.05,0,0,0-5.67,8.31v.37l.76.76Zm7.17-71h-1.51c-1.88,0-3,.37-3.77,1.51a11.38,11.38,0,0,0-1.51,3,22.87,22.87,0,0,1-1.51,3C554.28,396.43,556.92,394.17,558.8,390Zm14.72-13.59-.37-3c-2.65,1.89-4.15,3.77-4.53,6.42.75.37,1.13.75,1.51.75,0,.38,0,.38.37.38A4.56,4.56,0,0,0,573.52,376.43Zm42.65-18.12c-3.39,4.15-5.28,7.55-5.28,10.95v1.51Zm1.89-146.44c-1.13-.38-3-.38-5.28-.75,2.64,3.39,4.53,4.9,5.66,5.28s2.64.38,4.53.76C621.08,213.76,619.19,212.25,618.06,211.87Z"/><path d="M717.89,430c-4.53,0-6.79-1.51-6.79-4.9a9.49,9.49,0,0,1,3-6.8l2.65-3.77a20.12,20.12,0,0,0,4.53-7.93,21.2,21.2,0,0,0-6,.76,19.29,19.29,0,0,1-4.15.75l-2.65-.37c-4.15-1.14-6-2.65-6-4.91a9.28,9.28,0,0,1,3-6c2.65-3,3.78-7.17,3.78-12.08,0-3.39-.38-5.66-1.51-6.79s-2.64-1.51-5.29-1.51l-3.39.38c-3.4,0-6-.76-7.93-2.64a23.13,23.13,0,0,1,9.44-12.46,74.07,74.07,0,0,0,13.21-10.95,3.29,3.29,0,0,0-2.27-1.13l-4.53,1.89a21.05,21.05,0,0,1-6.41,1.13c-2.27,0-3.78-1.13-4.91-3.4a9.4,9.4,0,0,1-.75-2.64q0-4,5.66-6.79a92.13,92.13,0,0,1,14.34-9.06c12.08-6.41,21.14-10.57,26.8-13.21l1.13-.75a19.28,19.28,0,0,0,9.06-6.8,183.84,183.84,0,0,0-35.1,14.35l-4.16,2.26h-.75a30.6,30.6,0,0,1-14,4.53,25.76,25.76,0,0,0-12.08,4.15,38.67,38.67,0,0,1-10.57,4.53,19.86,19.86,0,0,1,10.57-10.19,19.61,19.61,0,0,0,8.68-6.79q5.1-6.24,11.32-7.93a15.93,15.93,0,0,0-5.28-2.26c-4.53-1.14-6.8-3-6.8-5.29a11.66,11.66,0,0,1,1.89-4.91l.38-1.13c0-.38,0-.38-.38-.75s-.75-.38-1.13-.76a1.39,1.39,0,0,1-1.13-.37c-6.42-4.53-9.44-9.06-9.44-13.59,0-4.15,3-8.68,9.44-12.83A206.34,206.34,0,0,1,733,250.37c6.79-3,13.58-6,20-9.44,23.4-11.7,52.08-23,86.43-33.59l6.42-1.88a1086.84,1086.84,0,0,1,150.59-34.35c49.44-8.68,91.34-13.21,125.68-13.21a327.52,327.52,0,0,1,38.12,2.27c4.15.75,8.31,3,12.46,7.17,3.77,4.15,6,8.3,6.41,12.07,0,3.78-3,6.8-9.06,8.31l-1.88.75c6.41,0,11.32,1.13,14.72,3,1.13.76,1.51,1.89,1.88,3.78a3.63,3.63,0,0,1-2.64,3.77c-1.88.75-3,1.51-3.39,2.26.37.38.75.38,1.51.38.37.38,1.13.38,2.26.76a7.21,7.21,0,0,0,3,.75c3,0,4.91,1.13,5.28,3.4a4.87,4.87,0,0,1-1.88,4.15,19,19,0,0,1-4.91,1.51l-.76.38c-3.39.75-5.28,3.39-6,7.55a13.78,13.78,0,0,1-1.51,4.15c5.66,4.15,9,6.79,9.81,8.3-.38,1.13-1.51,2.27-3.77,3.4-2.27.75-3.4,1.88-3.78,3.39,0,.38,0,.38.38.76,0,.38,0,.38.38.75,0,.38.37.38,1.13.76.38.38,1.51.38,2.64.75s2.64.76,3.77,1.14l.76.37c5.28,1.89,8.3,4.53,8.68,7.93,0,2.64-1.51,4.15-4.91,4.91a6.32,6.32,0,0,0-3.77,1.13,12.44,12.44,0,0,1-8.3,3,36.64,36.64,0,0,0,7.92,17.36c4.53,6,6.8,10.57,6.8,13.21,0,3.4-3,4.91-9.44,4.91-21.51,0-39.25.75-53.59,2.64-42.28,5.28-92.1,15.47-150.22,30.57-43.4,11.32-86.43,24.53-128.32,39.63A635.24,635.24,0,0,0,770,402.47c-12.83,5.29-23,11.32-30.19,17.36l-4.53,3a32.28,32.28,0,0,1-14,6.8,1.42,1.42,0,0,1-1.14.37Zm315.53-211.73a9.76,9.76,0,0,0-4.15-1.13c-1.14,0-2.27.75-3.4,2.64a13.47,13.47,0,0,0,4.15.75C1031.15,220.55,1032.29,219.8,1033.42,218.29Zm49.06,42.27a9.91,9.91,0,0,0-4.15-1.13,9.05,9.05,0,0,0-5.66,2.26l.75.38a25.79,25.79,0,0,0,4.91.75A5.2,5.2,0,0,0,1082.48,260.56Zm66-34.35h-6a173.08,173.08,0,0,0-34,3.4l-18.88,3C1122.87,232.63,1142.49,230.37,1148.53,226.21Z"/><path class="cls-1" d="M734.5,688.18v-5.66a9.27,9.27,0,0,1,3-6.41,13.31,13.31,0,0,0,2.64-4.53l-1.51-.38a3.91,3.91,0,0,0-3,1.51,4.53,4.53,0,0,1-3,1.51c-.76.38-1.51.38-2.27.75a4.74,4.74,0,0,1-2.26.38c-1.51,0-2.27-1.89-2.27-6l.38-6a60.46,60.46,0,0,1,.76-9.81c.37-1.89,2.26-4.53,4.9-7.92a3.41,3.41,0,0,0-2.64-1.14,2.83,2.83,0,0,0-1.89.38,1.37,1.37,0,0,1-1.13.38,9,9,0,0,1-4.53,1.51c-4.9,0-7.17-1.89-7.17-6,0-1.89.76-3.78,2.64-6.42,1.89-2.26,3-3.77,4.16-4.15,1.51-1.51,2.26-2.64,2.26-3,0-1.13-1.13-2.26-3.77-3.77l-.38-.76a7.25,7.25,0,0,1,.75-3,7.86,7.86,0,0,0,1.51-2.64c.38-1.13,1.51-2.26,2.65-3.77,2.64-3.4,3.77-6.42,3.77-9.82a27.5,27.5,0,0,0-7.55,3.4,13.84,13.84,0,0,1-5.66,3,30.74,30.74,0,0,1-3,.75,15.35,15.35,0,0,1-6.42-1.88,60.18,60.18,0,0,1,10.19-15.48,6.55,6.55,0,0,0-1.88-.75l-2.27,1.13c-.75.76-2.26,1.13-4.53,1.13-1.88,0-3-.37-3.77-1.51-1.13-1.13-1.51-1.88-1.51-2.64a4.1,4.1,0,0,1,.38-1.89,8.49,8.49,0,0,0,1.13-1.88c.38-.38.75-.76.75-1.14,3-3,4.53-6,4.53-9.43a13.86,13.86,0,0,0-1.88-6,10.91,10.91,0,0,1-.76-3.4c0-3,2.64-7.17,7.55-12.07v-.38A159.11,159.11,0,0,1,750,525.14c4.91-2.65,9.44-5.67,14-8.68a243.09,243.09,0,0,1,47.17-24.54L842.06,481c13.21-4.15,26.42-8.68,39.25-13.59q84.93-30.57,202.31-45.67a576,576,0,0,1,74.73-4.53c12.83,0,21.89,4.53,27.55,14a10.64,10.64,0,0,1,1.51,5.66c0,1.89-.76,3.77-2.65,6l6,.37c.38.38,1.51.38,2.65.38,1.13.38,2.26.38,3.39.76s1.89,1.51,1.89,3.39c0,1.51-.38,2.65-1.51,3l-3.4,1.14c-1.13.37-1.88.37-2.26.75a5.57,5.57,0,0,1-2.64.38c-3.78,0-5.67,1.51-6,4.9a4.94,4.94,0,0,1-3.4,3.78,13.49,13.49,0,0,0-4.53,3,104.61,104.61,0,0,1,16.23,2.26,27.83,27.83,0,0,1,13.21,9.06c-.75,2.64-3,4.53-7.17,4.91-3.4,0-5.28.75-5.66,2.26a19,19,0,0,0-.76,3.4,10.55,10.55,0,0,0,3.4,8.3,23.73,23.73,0,0,0,1.51,2.27c.38.37.38.75.75.75a5.64,5.64,0,0,1,1.51,4.15,9.4,9.4,0,0,1-.75,2.64,7.07,7.07,0,0,1-5.28,3l-2.65-.37a17,17,0,0,0-6-1.14,24.62,24.62,0,0,0-9.81,2.27,15.25,15.25,0,0,1,7.93,3,67,67,0,0,1,5.28,4.53,16,16,0,0,0,4.53,4.15,7.85,7.85,0,0,1,2.64,4.91c0,2.26-1.13,4.15-3.39,6s-3.4,3.4-3.4,4.91c0,1.13,1.51,3.4,4.91,6.8,4.52,3.39,6.79,6.41,6.79,9.43a8.84,8.84,0,0,1-.76,3c-1.13,2.64-2.64,3.77-4.15,4.15a41,41,0,0,1-7.55.38c-1.13-.38-9.43-.38-24.53-.38-15.85,0-28.68.38-38.12.76A578.51,578.51,0,0,0,1007.75,581l-30.19,8.68Q936.24,600.44,896,614.59a657.34,657.34,0,0,0-139.64,68.69l-5.66,4.15c-3.4,3.4-6.42,5.28-8.69,5.28C737.52,692.71,734.87,691.2,734.5,688.18Zm87.56-174.74a54.53,54.53,0,0,0-27.93,14A54.69,54.69,0,0,0,822.06,513.44Zm86.81,17.36a11.28,11.28,0,0,0-8.68,4.15l1.88-.38c3-.38,5.66-1.89,8.31-3.77Zm29.44-12.08-6,1.51a44,44,0,0,0-21.89,10.57H913a791.16,791.16,0,0,1,98.51-27.55,2,2,0,0,0,1.51-1.14c.37-.75.37-1.13.75-1.51A510.6,510.6,0,0,0,938.31,518.72Zm24.15-43q-6.23,0-13.59,4.53c6.42-.38,12.46-1.51,17.37-4.15A11.62,11.62,0,0,0,962.46,475.69Zm19.25-5.28c-6.79.38-11.7,2.26-15.1,5.66,1.89-.38,3.78-.75,6-1.13A21,21,0,0,0,985.48,470,12.73,12.73,0,0,1,981.71,470.41Zm124.55,1.51-12.83,1.13a511.82,511.82,0,0,0-54.35,4.91,208.17,208.17,0,0,0-53.22,15.09ZM989.64,470a13.24,13.24,0,0,0,6-1.13,9.91,9.91,0,0,0-4.52-1.13,8,8,0,0,0-4.91,1.88Zm16.6,51h-1.88a12.76,12.76,0,0,0-3.78.38c-1.13.38-2.26,1.13-3.4,1.51a27.57,27.57,0,0,0-3,1.13l3,.38A13.5,13.5,0,0,0,1006.24,521Zm15.48-57.36a8.64,8.64,0,0,0-3.4-1.14,6,6,0,0,0-4.53,1.51,4.1,4.1,0,0,1,1.89.38,5.55,5.55,0,0,0,2.64.38A6.16,6.16,0,0,0,1021.72,463.62Zm3,35.1a39.35,39.35,0,0,0-11,1.88,13.27,13.27,0,0,0,5.29,1.14,46,46,0,0,0,7.54-.76,32.32,32.32,0,0,1,6-.38h3A35.08,35.08,0,0,0,1024.74,498.72ZM1041,514.57a18.93,18.93,0,0,1,4.9-1.89l-4.9-.38a44.79,44.79,0,0,0-16.23,3.4l-1.89.38a18.86,18.86,0,0,0,6,1.13A34.94,34.94,0,0,0,1041,514.57Zm1.88,11.7-5.28-.76c-2.64,0-4.15.38-5.28,1.14a8.13,8.13,0,0,1-4.53,1.13c-1.89,0-3,.75-4.16,2.64h2.27A40.17,40.17,0,0,0,1042.85,526.27Zm1.51-27.55h1.51c5.66,0,9.82-1.51,13.21-4.16l-6.79-.37a47.32,47.32,0,0,0-14.34,2.26,3,3,0,0,0-1.89,3,1.37,1.37,0,0,1-.38,1.13A22.41,22.41,0,0,1,1044.36,498.72ZM1067,521.36l-4.15-.38a23.07,23.07,0,0,0-6.42,1.51A14.27,14.27,0,0,1,1050,524l3.4.38C1054.55,524.38,1059.08,523.25,1067,521.36Zm-7.55-10.94a4.1,4.1,0,0,1-1.89-.38,5.55,5.55,0,0,0-2.64-.38,2.85,2.85,0,0,0-2.64,1.51,5,5,0,0,0,3,1.13A6.05,6.05,0,0,0,1059.46,510.42Zm94.73-11.33-4.53-.37a35.41,35.41,0,0,0-17.73,4.53l2.64.37,6.41.38h3.4C1147.78,503.62,1150.8,502.11,1154.19,499.09Zm-3,37H1147a3.45,3.45,0,0,0-2.64,1.13,5.36,5.36,0,0,0,3.77,1.51h1.14a8.82,8.82,0,0,0,3.39-2.26l.76-.76A4.78,4.78,0,0,1,1151.17,536.08Zm10.19-.75a5.36,5.36,0,0,0,2.27-.76l-2.27-.38a4.74,4.74,0,0,0-2.26.38L1158,535Z"/><path d="M757.14,919.17c-2.64-1.13-3.77-2.64-3.77-4.53a8.94,8.94,0,0,1,1.51-4.53c1.13-1.51,1.88-3.4,3-5.28l1.13-3c-6-1.89-9.44-3.4-10.57-4.53v-.38a1.38,1.38,0,0,1,.38-1.13,56.35,56.35,0,0,1,21.89-22.27l.75-.75c6.42-3.78,11.33-9.82,14.72-18.5a63.85,63.85,0,0,0-18.49,11.32l-6.79,4.91q-7.36,6.79-15.86,6.79c-1.88,0-3-.37-3.77-1.51a2.73,2.73,0,0,1-1.51-2.26c.38-1.89.75-2.64,1.13-3s.38-.75.76-1.51c0-1.89-.76-2.64-2.27-2.64a4.74,4.74,0,0,0-2.26.38,8.47,8.47,0,0,1-3,.37,39.89,39.89,0,0,0-7.55-.37c.38-1.14.75-2.65,1.51-4.53a25.36,25.36,0,0,0,.75-5.29c-.37-1.88-1.88-3-4.9-4.15a2.21,2.21,0,0,1-.76-1.89c0-3.39,3.4-7.17,9.82-12.07,1.51-.76,2.26-1.51,2.26-1.89a3.53,3.53,0,0,0-2.26-3l-1.89-3.77c-1.13-3.78-3-5.67-6.42-5.67H722.8c-.76,0-1.14-.75-1.14-2.26v-3c0-2.64,1.51-5.28,4.15-7.93l2.27-2.64v-.37c0-.76-.38-1.14-1.51-1.14-7.17-.37-11-1.51-11.7-2.64a6,6,0,0,1-1.13-3q0-3.39,3.39-10.19a49.33,49.33,0,0,1,14.72-15.85l1.14-1.13A323.32,323.32,0,0,1,808.09,729l40.77-17.74c21.51-9.82,43-19.25,65.29-27.93C950,670.07,995.67,658,1051.91,647.8q42.46-7.92,107.57-7.93c18.49,0,28.68,0,30.57.38a15.79,15.79,0,0,1,5.28,2.27,19.58,19.58,0,0,1,8.31,11.32,2.88,2.88,0,0,1,.37,1.89c0,1.13-.75,3-2.26,5.28a13.26,13.26,0,0,0-2.64,7.93c0,1.13-1.51,1.88-4.53,1.88a10.67,10.67,0,0,1-3.4-.37c-7.17-.38-17-.76-29.44-.76-2.64.38-5.28.38-7.92.76s-4.91.75-6.8,1.88a58.19,58.19,0,0,1,8.31.38c5.66,0,10.94,0,15.85-.38l5.28-.37a67,67,0,0,1,15.48,1.88c6.41,1.89,12.07,5.66,17.36,11.7a16.63,16.63,0,0,1-5.66,3.78,44.84,44.84,0,0,1-6.8,1.51c-2.26.37-4.53.75-6.41,1.13,1.13,2.26,3.39,3.77,7.17,4.15,3.39,0,6.79,1.51,10.19,4.91,2.64,1.51,3.77,3,3.77,4.9a5.48,5.48,0,0,1-.75,2.27,1.94,1.94,0,0,1-1.89,1.51h-2.64l-10.57-.38c-2.26.38-4.91,2.64-7.93,7.17l10.57.38c6.8,0,10.57-.38,11.7-.76a7.5,7.5,0,0,1,2.64-.37c.38.37,1.14.75,1.51,1.13s.76,1.13,1.14,1.51c.37.75.75,1.51,1.13,2.26a5.57,5.57,0,0,1,.38,2.64c0,1.89-1.51,3-4.91,3h-2.64a10.67,10.67,0,0,0-3.4-.37,47,47,0,0,0-11.7,1.88c10.19,4.16,16.61,11.33,18.49,20.76a6.48,6.48,0,0,0,1.89-4.9V741a3.84,3.84,0,0,1,2.27-1.88,29.6,29.6,0,0,1,2.64,13.21,55,55,0,0,0,.75,9c0,1.14-1.13,2.27-3,2.65s-3,1.13-3,1.88c0,.38.38.76,1.51,1.51a12.55,12.55,0,0,1,4.53,5.29l.38.75c1.51,2.64,2.26,4.53,2.26,6.42,0,3.77-3,5.66-9.43,5.66l-12.83-.38c-22.65,0-52.09,3.4-88.32,10.57L1083.24,801q-102.48,16.43-218.91,65.68a406.24,406.24,0,0,0-93.6,52.08,10.19,10.19,0,0,1-6.42,2.64A14.37,14.37,0,0,1,757.14,919.17Zm12.08-136.63c-6,.75-10.57,3-13.21,7.17C760.54,789.71,765.07,787.45,769.22,782.54Zm194-45.29,2.26-1.13H960.2a2.32,2.32,0,0,1-1.51.37,22.72,22.72,0,0,0-3,1.51,17.34,17.34,0,0,1-3.78,1.89h2.27A18.65,18.65,0,0,0,963.22,737.25Zm27.55-7.93c22.27-7.92,52.84-15.09,91.34-22.26,4.9-.76,7.17-3.4,7.17-7.55v-.76a813.85,813.85,0,0,0-114.36,32.84l4.9.38A25.64,25.64,0,0,0,990.77,729.32Zm-4.53,11.33a7.55,7.55,0,0,0-4.15,1.13,58.24,58.24,0,0,0-6,4.15c6-.38,11.32-1.51,16.23-4.15Zm35.48-9.44c-14.72,3.4-22.27,5.66-23.4,6-3.4,0-5.66,1.51-6,4.53a68.42,68.42,0,0,0,21.13-4.53,21.73,21.73,0,0,1,5.29-1.89,16.85,16.85,0,0,0,5.66-1.88,14.87,14.87,0,0,0,5.28-4.53Zm3.39-27.55c5.67-1.13,11-2.27,16.61-3.78a38.25,38.25,0,0,0-9.43-1.13c-13.59,0-25.29,4.15-34.73,12.83A139.8,139.8,0,0,1,1025.11,703.66Zm2.65,67.18a11.65,11.65,0,0,0-3-.75c-1.89,0-3.78,1.13-6,3.39h1.88A10,10,0,0,0,1027.76,770.84Zm7.92-41.14c1.89,0,6-1.51,12.08-4.91L1030,729A40.3,40.3,0,0,0,1035.68,729.7Zm77.37,3.78a316.52,316.52,0,0,0-58.87,5.66,17.51,17.51,0,0,0,10.94,3.77h3.4C1074.18,742.53,1088.9,739.14,1113.05,733.48Zm-8.68-66.05c-4.15,0-9.06,1.88-14.72,6,2.65-.75,4.91-1.13,6.8-1.5A29.58,29.58,0,0,0,1107,667.8,5.73,5.73,0,0,0,1104.37,667.43Zm3,13.58a55.69,55.69,0,0,0,18.87-4.9,15,15,0,0,0-5.66-1.14c-3,0-7.55,1.14-13.21,3.78a32.15,32.15,0,0,1-8.3,3.4Zm1.51-13.58a46.87,46.87,0,0,0,21.14-4.91,10.4,10.4,0,0,1-3.4-.38,50.81,50.81,0,0,0-7.55-.75,12.28,12.28,0,0,0-10.94,6Zm59.26,74.73a12.66,12.66,0,0,0-6.42-1.89,13.85,13.85,0,0,0-7.92,3Zm15.47,10.56h-6.41a40.55,40.55,0,0,0-18.5,4.53,36.55,36.55,0,0,1,6.8.38,126.77,126.77,0,0,0,15.09-.75l4.91-.38a53.81,53.81,0,0,1,8.68.75C1190.43,754.61,1187,753.1,1183.63,752.72Zm14.72,6.42a10.19,10.19,0,0,0,6.42,2.64,4.64,4.64,0,0,0,3.4-1.51c-2.65-2.64-4.91-3.77-7.55-3.77a7.27,7.27,0,0,0-4.53,1.51Z"/><path d="M1617.11,805.56a.37.37,0,0,1,.37.38c1.89,2.27,3.78,4.53,5.66,7.17q3.4,5.1,19.25,24.91l1.14,1.51c4.15,4.91,6.41,9.06,6.41,12.46,0,4.9-2.26,7.55-6.41,7.55a7.06,7.06,0,0,1-4.16-3.4c-4.9-6.42-9-11.7-12.45-15.1-3.78-5.66-6.8-8.3-9.44-8.3l-2.26.38c6,9.43,11.32,17,16.61,22.26,2.64,1.89,3.77,4.16,3.77,6.42a11,11,0,0,1-.76,3.4c-1.51,2.64-3,4.15-4.52,4.15h-.38a9.6,9.6,0,0,1-5.29-3c-.37,0-.37-.38-.75-.76l-.76-.75-1.88.38a12.54,12.54,0,0,0,1.13,5.66,10.11,10.11,0,0,1,1.13,4.53c0,1.51-1.13,2.64-3.4,3.77a20.83,20.83,0,0,0-6.41,5.29,15.18,15.18,0,0,1-5.29,4.9,12,12,0,0,1-3.77,1.13c-1.89,0-4.53-1.13-7.17-3A123.05,123.05,0,0,1,1571.06,858a431.13,431.13,0,0,0-27.93-39.26A426.71,426.71,0,0,1,1516,781.41c-8.31-12.46-16.23-25.29-24.16-37.74l-10.19-15.48a23.34,23.34,0,0,0-1.51-3l-2.27-3.39c-2.64-3.4-4.15-4.91-5.28-4.91-1.13.38-2.64,1.89-4.53,5.28a910.23,910.23,0,0,0-49.82,97.38c-5.66,12.45-12.08,24.15-18.87,35.85Q1384,883.13,1371,913.13c-4.15,10.19-8.68,20-13.21,29.82l-2.64,5.66c-6.42,14-10.94,20.76-13.21,20.76-1.89,0-3.77-2.27-5.28-6.42-1.13-2.64-2.27-3.77-3.4-3.77-1.89,0-4.53,1.88-7.55,5.28-1.88,1.89-3.77,3-5.66,3s-3.4-.76-5.28-2.64a6.75,6.75,0,0,1-1.14-4.15l1.14-4.16,3.39-9.43a11.09,11.09,0,0,0-3-1.51l-3,.38c-2.64,0-3.77,0-4.15-.38-3.77,0-6-2.64-6.79-7.55-1.13-4.91-2.26-7.17-4.15-7.17-1.51,0-3.78,2.26-7.17,7.17-3.4,6.42-7.17,9.44-11,9.44-1.89,0-3.77-1.14-5.28-3.78a2.88,2.88,0,0,1-.76-1.89c0-1.51.76-3,2.65-4.9.75-1.89,4.15-7.17,9.81-15.48a10.22,10.22,0,0,0,2.26-6.41,11.88,11.88,0,0,0-1.51-6c-1.88,0-3.39,1.51-4.53,4.9a13.71,13.71,0,0,1-2.64,5.29c-4.9,8.68-9.06,12.83-13.21,12.83a6.52,6.52,0,0,1-4.53-2.26,6.09,6.09,0,0,1-2.26-4.91,34.85,34.85,0,0,1,1.51-4.91c.38,0,.38,0,.38-.37l4.52-10.19c-.75-.76-2.26-1.14-4.15-1.14-3,0-4.53-1.13-4.53-3.77a14.74,14.74,0,0,1,1.14-4.91,11.19,11.19,0,0,0,.75-3.39,12.44,12.44,0,0,0-1.51-6.42c-1.13-1.89-1.89-3.4-1.89-4.91a13.3,13.3,0,0,1,.76-3.77l6-18.12c-3.78,3.4-6.42,7.17-7.55,11.32a27,27,0,0,1-5.66,8.31c-2.64,3-5.29,4.53-7.17,4.53-2.65,0-4.53-.76-5.66-2.64a2.84,2.84,0,0,1-1.51-2.65,11.24,11.24,0,0,1,1.51-4.9,59.69,59.69,0,0,0,3-6.8c3-7.17,6.42-14,9.82-21.13l15.85-32.08c37.36-76.62,75.86-152.48,115.87-226.84,3.4-6.41,5.28-10.56,5.28-12.45q0-3.4-5.66-12.46l-23-39.25-25.67-42.65c-6.41-11.32-12.45-23-17.74-34.72q-9.62-20.38-20.38-38.5a522.8,522.8,0,0,1-27.55-51.71c-6.41-12.83-12.83-25.28-19.62-37.74a36.45,36.45,0,0,1-3.4-15.1,28.41,28.41,0,0,1,.38-5.66,18.74,18.74,0,0,0,.37-4.53,14.4,14.4,0,0,0-.37-4.15c0-6.41,3.39-12.45,10.56-18.11,3-3,5.29-4.53,6.42-4.53a6.3,6.3,0,0,1,1.89.75,6.38,6.38,0,0,1,2.26,2.27,8.35,8.35,0,0,0,1.89,1.88c.38.38.38.76.75.76a3.45,3.45,0,0,0,1.89-1.13,14.4,14.4,0,0,0,1.89-3,8.09,8.09,0,0,1,1.89-3,2.27,2.27,0,0,1,2.26-1.14,15.18,15.18,0,0,1,2.64.76,11,11,0,0,0,3.4.75c1.13-.75,1.51-3,1.51-6.79,0-4.91,1.51-7.93,4.91-8.68,1.88,0,3.39.38,4.15,1.51.37,1.13,1.13,3,1.88,4.91.38,2.26.76,3.39,1.14,3.77a1.4,1.4,0,0,0,.37,1.13c.38,1.89,1.14,3,1.89,3a5.94,5.94,0,0,0,2.27-1.13,4.65,4.65,0,0,0,1.13-3.4l-1.51-3.77c-1.13-1.89-2.27-4.15-3.4-6.42v-.75a9.47,9.47,0,0,1-1.51-5.29,9.08,9.08,0,0,1,4.91-8.3,6.35,6.35,0,0,1,1.88-.76c1.14,0,2.27,1.51,3.78,4.91l1.89,4.15a53,53,0,0,0,8.68,13.21,12.65,12.65,0,0,0,1.13-5.66c-.38-1.51-.76-3.4-1.13-5.28a13.27,13.27,0,0,1-1.14-5.29q0-9.06,6.8-10.19a7.32,7.32,0,0,1,2.64.38c.76.38,1.13.76,1.51.76h.75c.38,0,.38-.38.76-.76v-1.89l-.38-2.64q0-6.22,4.53-6.79c3.4,0,5.66,1.88,6.79,6a65,65,0,0,0,9.44,20,9.05,9.05,0,0,0,2.26-5.66c-.37-1.51-.75-3-1.13-4.15a13.86,13.86,0,0,1-1.51-3.4,39.88,39.88,0,0,0-3-7.17c-2.64-4.91-3.77-9.06-3.77-12.46s1.51-6.41,4.53-9A7,7,0,0,1,1348,204c2.64,0,4.53,2.26,6.42,7.17l18.87,41.51c16.23,37.37,27.55,61.52,34,72.09,3.39,7.55,6,11.7,8.68,12.46q6.22,1.13,10.19,10.19c1.13,2.26,2.26,4.53,3.39,6.41a5.51,5.51,0,0,1,1.51-1.13,14.08,14.08,0,0,0,1.89-2.26c.38-.76,1.13-1.14,1.51-1.51a1.39,1.39,0,0,1,1.13-.38,2.74,2.74,0,0,1,2.27,1.51,18.26,18.26,0,0,0,1.13,2.64,4.1,4.1,0,0,1,.38,1.89v1.89a5.51,5.51,0,0,1-1.13,1.51c-3.4,1.88-5.29,3.77-5.29,6a12.44,12.44,0,0,0,1.51,6.42c.76,1.89,1.13,3.78,1.51,4.91a11.41,11.41,0,0,0,1.51,3.77l27.93,47.56,6.42,11.7,22.26-31.71a1132.77,1132.77,0,0,1,69.07-97.37c20-25.29,44.16-56.62,72.47-93.23,23-28.3,46.8-55.48,71.33-81.14,3.4-3.4,6-5.29,8.68-5.29,3.78,0,6.8,4.16,9.44,12.08a10.39,10.39,0,0,0,4.53,6c1.89,1.51,3,3,3,4.91s-1.13,3.39-3.4,5.28c-2.64,1.89-3.77,3.4-3.77,4.91a6.26,6.26,0,0,0,.75,1.88,8.29,8.29,0,0,1,.38,3c0,2.27-1.13,4.53-3,7.17a42.17,42.17,0,0,0-3,5.67c4.91,0,8.3-1.89,10.19-6,1.51-2.64,3-3.78,4.91-3.78q1.7,0,4.53,2.27a9.23,9.23,0,0,1,2.26,6,13.69,13.69,0,0,1-2.64,6.41,8,8,0,0,0-2.27,6c.38.38,1.14.38,2.27.38a9.85,9.85,0,0,1,2.64.75c7.17,1.89,10.57,4.91,10.57,9.82,0,3-1.51,6.41-4.15,10.56-.38.38-.76,1.14-1.14,1.51-.37.76-1.13,1.51-1.5,2.27s-1.14,1.51-1.51,2.26a20.26,20.26,0,0,0-1.51,2.65,6.25,6.25,0,0,0-.76,1.88,2.74,2.74,0,0,0,1.51,2.27c1.13,1.13,1.89,1.51,2.27,1.51,1.13,0,2.64-1.14,3.77-3.4a20.37,20.37,0,0,1,6.79-8.68,3.91,3.91,0,0,1,3-1.51c1.89,0,4.53,1.51,8.68,4.91l6.42,4.52A11.24,11.24,0,0,1,1773,230a18.37,18.37,0,0,1-4.53,4.91,16.74,16.74,0,0,0-4.53,5.66,7.52,7.52,0,0,0,3,.37,9.54,9.54,0,0,0,2.65-.75h.75q6.23-1.69,9.06-2.27a4.94,4.94,0,0,1,4.53,2.65,76,76,0,0,1,4.53,9.43c1.88,4.91,3,7.93,3,9.44,0,2.64-2.27,5.66-6.42,9.43-13.21,11.7-33.21,32.84-60.39,63.79a962.37,962.37,0,0,0-92.47,121.53c-23.78,35.1-46.8,71.33-69.07,108.32a34.89,34.89,0,0,1-4.53,6.79l-2.26,3.4c25.66,44.92,55.86,90.21,90.58,136.63,9.06,12.46,17.74,24.91,26.42,37.74l14.34,20.38a92.33,92.33,0,0,0,12.46,14.35c7.55,7.17,11.32,12.45,11.32,16.22,0,1.89-.75,4.16-2.64,6.8-.75,1.51-1.51,2.26-2.64,2.26a49.35,49.35,0,0,1-4.53-2.64c-.38,0-.38-.38-.76-.75a6.51,6.51,0,0,0-4.52-2.27,2.39,2.39,0,0,0-1.89,2.27,9.85,9.85,0,0,0,.75,2.64,15.2,15.2,0,0,1,1.89,6.41,4.86,4.86,0,0,1-1.51,3.78,5.22,5.22,0,0,1-3.4,1.89,4.41,4.41,0,0,1-2.64-1.89c-2.64-1.89-4.9-2.64-6.79-2.64s-3.4.75-5.29,1.88c-4.15,2.65-6.41,7.17-6.41,14,0,4.15-.76,6.41-2.27,6.41h-1.13a2.88,2.88,0,0,0-1.89-.37c-1.13,0-2.64.75-4.53,1.88a12,12,0,0,1-6.41,2.27c-1.89,0-4.15-1.13-6-3.78a292.34,292.34,0,0,0-23.4-29.06c-5.66-6.41-9.44-10.57-11-12.45-1.51-3.4-3.77-5.29-6.79-5.29C1613.33,798.77,1616.35,804.05,1617.11,805.56ZM1328,278.68c.37-.38.37-.76.37-1.89q-1.69-3.41-3.39-3.4l-.38.38a5.85,5.85,0,0,0,3.4,5.66ZM1335.92,718a8.42,8.42,0,0,1,1.51-1.89c.38-.37.38-.37.38-.75v-.76c-.38-.37-.38-.37-.76-.37-1.13,0-2.26,1.13-3.77,3.39l-.38,1.14c0,.75,0,1.13.38,1.13h.38A3.83,3.83,0,0,0,1335.92,718Zm89.83-36.61c4.91-6,8.3-13.59,11-23-7.93,9.06-12.84,18.49-15.1,28.68Zm99.64-236.65c3.4-2.26,4.91-4.9,4.91-7.92v-1.51c-2.64,1.89-4.53,5.28-5.66,9.81ZM1525,633.46c.76,4.9,3.4,8.68,8.31,11.32C1531.43,638.74,1528.79,635,1525,633.46Zm24.91-221.55a120,120,0,0,0,11.33-12.83c3.39-4.53,5.28-10.2,6-17.37a180.16,180.16,0,0,0-29.44,44.16A71.19,71.19,0,0,1,1549.92,411.91Zm-3.77,58.5a15.24,15.24,0,0,0-3,7.92l2.64-2.26c4.15-3.4,6-7.17,6-10.95v-.75A58.39,58.39,0,0,0,1546.15,470.41Zm7.55-6a2.53,2.53,0,0,0,2.64-1.51l15.47-23c-8.3,5.66-14.72,14-19.62,24.15A2.82,2.82,0,0,0,1553.7,464.37Zm16.23,272.12a14,14,0,0,1,1.88,4.16c1.14,4.9,3,7.54,6.8,8.68C1577.1,743.29,1574.46,738.76,1569.93,736.49Zm7.55-326.85c4.9-4.9,8.68-10.94,12.07-18.11A235.31,235.31,0,0,0,1616,357.94a219.46,219.46,0,0,1,12.84-18.12,4.65,4.65,0,0,0,1.13-3.4,5.32,5.32,0,0,0-.76-2.26,6.35,6.35,0,0,0-1.88-.76c-.38,0-.76.76-1.89,1.89l-.38.76c-4.15,4.9-14,18.87-29.44,41.13a6.84,6.84,0,0,1-1.88,2.65,21.72,21.72,0,0,0-4.91,11.32c-5.29,4.91-11,13.21-17,25.29Zm29.44,378.94a122.67,122.67,0,0,0-27.18-38.12A118.23,118.23,0,0,0,1606.92,788.58Zm-26.05,24.15c5.29,11.7,11.33,19.63,17.74,23.78C1595.21,828.21,1589.18,820.28,1580.87,812.73Zm12.46-466.87c-3.4,1.51-6.8,4.9-9.82,10.19l-1.88,3.4Zm16.6,474.05q-4-4.53-12.45-9.06A58.75,58.75,0,0,1,1605,821a32.41,32.41,0,0,0,9.81,11.32C1613.71,827.08,1612.2,822.92,1609.93,819.91Zm13.21-515.19a115.8,115.8,0,0,0-14.34,15.1,36.45,36.45,0,0,0-5.28,12.45ZM1613,716.11c1.89,5.67,4.53,9.44,8.31,11.7Z"/></svg>